<svg width="50" height="39" fill="none" xmlns="http://www.w3.org/2000/svg"><g clip-path="url(#clip0_47_386)"><path d="M12.683 8.467l8.723-6.677a8.642 8.642 0 018.345-1.2l13.907 5.336a7.925 7.925 0 002.834.513h2.289a1.206 1.206 0 011.21 1.238v17.102c0 .67-.54 1.212-1.205 1.212h-3.024a1.888 1.888 0 00-1.19.426l-.689.565a.412.412 0 01-.577-.061L27.1 7.116a1.324 1.324 0 00-1.675-.318L18 10.984a5.448 5.448 0 01-4.857.24 1.67 1.67 0 01-.46-2.758zM1.243 25.98h2.615l1.823-2.245a4.662 4.662 0 012.881-1.65 4.645 4.645 0 013.244.69 4.693 4.693 0 011.97 2.68 4.67 4.67 0 013.243 3.236 4.663 4.663 0 012.722 2.137c.99.155 1.904.625 2.61 1.34a4.896 4.896 0 01.669 5.834l-.245.437a.031.031 0 000 .041 2.655 2.655 0 003.728-.688 2.7 2.7 0 00.414-2.024.056.056 0 01.097-.056l.2.195a2.744 2.744 0 003.467.35 2.698 2.698 0 001.093-2.717.056.056 0 01.022-.074.056.056 0 01.075.017l.199.195a2.741 2.741 0 003.463.35 2.698 2.698 0 001.113-2.727.057.057 0 01.022-.075.056.056 0 01.075.018l.225.215a2.719 2.719 0 003.289.427 2.702 2.702 0 00.618-4.109l-1.635-1.982L26.033 9.632a.433.433 0 00-.552-.102l-6.312 3.554a7.877 7.877 0 01-6.64.513 4.257 4.257 0 01-2.584-2.567 4.83 4.83 0 01.44-3.673.61.61 0 00-.015-.6.602.602 0 00-.522-.293H1.243a1.2 1.2 0 00-.856.353 1.214 1.214 0 00-.355.859v17.102a1.208 1.208 0 001.21 1.202h.001zm9.224-1.227a2.323 2.323 0 00-2.978.6l-1.772 2.188a2.268 2.268 0 00.353 3.205l.27.21a2.233 2.233 0 002.508.18.106.106 0 01.123.002.108.108 0 01.04.116 2.279 2.279 0 00.818 2.219l.219.174a2.25 2.25 0 002.426.237.117.117 0 01.169.118c-.09.787.232 1.565.852 2.054l.154.118a2.272 2.272 0 002.451.231.127.127 0 01.194.098 2.29 2.29 0 00.843 1.433l.097.077a2.288 2.288 0 001.859.448 2.299 2.299 0 001.553-1.121l.332-.585a2.395 2.395 0 00-.399-2.943 2.281 2.281 0 00-2.482-.39.066.066 0 01-.097-.067 2.28 2.28 0 00-.928-1.958 2.252 2.252 0 00-2.136-.287c-.337.062-.266-.236-.266-.236a2.284 2.284 0 00-.037-1.815 2.262 2.262 0 00-1.347-1.207 2.247 2.247 0 00-1.798.171c-.25.036-.22-.2-.22-.2a2.268 2.268 0 00.229-1.701 2.256 2.256 0 00-1.03-1.37z" fill="#FF9B04"/></g><defs><clipPath id="clip0_47_386"><path fill="#fff" d="M0 0h50v39H0z"/></clipPath></defs></svg>