<svg width="48" height="50" fill="none" xmlns="http://www.w3.org/2000/svg"><g clip-path="url(#clip0_47_278)"><path d="M32.194 21.218v8.402l.965-1.07a.618.618 0 01.965.05l1.178 1.6 1.197-1.6c.03-.03.05-.07.09-.09a.62.62 0 01.865.05l.935 1.05v-8.382h-6.195v-.01zm7.422 0v10.003a.61.61 0 01-.623.61.615.615 0 01-.493-.25l-1.478-1.66-1.237 1.67a.626.626 0 01-.865.13.754.754 0 01-.151-.16l-1.197-1.63-1.539 1.71a.62.62 0 01-.865.05.586.586 0 01-.2-.45V21.238H24.6v20.005h21.392V21.238h-6.377v-.02zm-22.618 0v10.003a.61.61 0 01-1.066.4l-1.54-1.71-1.196 1.63c-.04.06-.09.12-.151.16a.626.626 0 01-.865-.13l-1.247-1.66-1.478 1.68a.615.615 0 01-.493.25.617.617 0 01-.624-.61V21.228H1.972v20.005h21.392V21.228h-6.366v-.01zm-7.423 0V29.6l.936-1.05a.602.602 0 01.865-.05l.09.09 1.197 1.6 1.177-1.6a.625.625 0 01.854-.14c.04.03.07.06.101.09l.976 1.07v-8.402H9.575v.01zM28.313-.017V9.986c0 .17-.07.34-.201.46a.61.61 0 01-.865-.05l-1.56-1.71-1.196 1.63c-.04.06-.09.12-.151.16a.627.627 0 01-.865-.13l-1.247-1.66-1.479 1.66a.62.62 0 01-.502.25.619.619 0 01-.624-.62V-.017h-6.356v20.005h21.412V-.017h-6.366zm-1.237 0H20.89v8.382l.936-1.05a.602.602 0 01.864-.05l.091.09 1.197 1.6 1.167-1.6a.635.635 0 01.864-.14c.04.03.07.06.101.09l.976 1.07V-.017h-.01zm20.899 42.48H-.02v3.151h47.995v-3.15zM-.02 46.845v3.151h3.57v-3.15H-.02zm44.424 0v3.151h3.57v-3.15h-3.57zm-22.207 0v3.151h3.57v-3.15h-3.57z" fill="#FF9B04"/></g><defs><clipPath id="clip0_47_278"><path fill="#fff" d="M0 0h48v50H0z"/></clipPath></defs></svg>