<svg width="10" height="5" fill="none" xmlns="http://www.w3.org/2000/svg"><g clip-path="url(#clip0_47_771)"><path d="M.45.48A.672.672 0 01.894.322a.67.67 0 01.443.156L5 3.531 8.675.47a.66.66 0 01.438-.146.68.68 0 01.45.156.469.469 0 01.187.37.468.468 0 01-.188.37L5.35 4.72a.458.458 0 01-.162.088.64.64 0 01-.188.026.65.65 0 01-.188-.026.461.461 0 01-.162-.088L.437 1.209a.45.45 0 01-.174-.36c0-.143.062-.266.187-.37z" fill="#777"/></g><defs><clipPath id="clip0_47_771"><path fill="#fff" transform="rotate(90 5 5)" d="M0 0h5v10H0z"/></clipPath></defs></svg>