<svg width="20" height="20" fill="none" xmlns="http://www.w3.org/2000/svg"><path d="M19.725 18.89l-4.811-4.812a8.409 8.409 0 002.072-5.536C16.986 3.884 13.197.1 8.544.1 3.886.1.102 3.889.102 8.542c0 4.654 3.789 8.443 8.442 8.443a8.407 8.407 0 005.535-2.072l4.812 4.811a.596.596 0 00.417.176.594.594 0 00.417-1.01zM1.283 8.542c0-4.003 3.257-7.257 7.256-7.257 4.004 0 7.257 3.258 7.257 7.257 0 4-3.253 7.262-7.257 7.262-3.999 0-7.256-3.258-7.256-7.262z" fill="#222" stroke="#222" stroke-width=".2"/></svg>