<svg width="15" height="13" fill="none" xmlns="http://www.w3.org/2000/svg"><path d="M13.087.698a1.562 1.562 0 00-.49.117h-.002c-.15.06-.861.359-1.943.812L6.777 3.26 1.262 5.583l.033-.013s-.189.062-.386.197a1.066 1.066 0 00-.307.298.872.872 0 00-.146.583c.048.379.293.606.47.732.178.127.348.186.348.186h.004l2.564.864c.115.369.781 2.559.941 3.063.095.302.187.49.302.634.055.074.12.135.199.184.04.024.084.043.129.056l-.026-.006c.007.002.014.008.02.01.02.006.035.008.061.012.406.123.732-.129.732-.129l.019-.014 1.513-1.379 2.537 1.947.058.024c.528.232 1.064.103 1.347-.125.285-.23.396-.523.396-.523l.018-.047 1.96-10.043c.056-.247.07-.48.009-.705a.949.949 0 00-.97-.691zm-.053 1.076c-.002.033.004.03-.01.093v.006L11.08 11.81c-.008.014-.022.045-.061.076-.041.033-.074.053-.244-.014l-3.103-2.38-1.874 1.71.393-2.516 5.07-4.725c.209-.194.139-.235.139-.235.015-.238-.316-.07-.316-.07l-6.392 3.96-.002-.01-3.064-1.032v-.002l-.008-.001a.142.142 0 00.016-.007l.017-.008.016-.006 5.517-2.324 3.874-1.632c1.079-.453 1.876-.786 1.921-.804.043-.016.023-.016.054-.016z" fill="#222"/></svg>