<svg width="16" height="17" fill="none" xmlns="http://www.w3.org/2000/svg"><path d="M7.603.803c-1.271.015-4.004.224-5.533 1.626C.933 3.556.536 5.221.49 7.281c-.04 2.052-.085 5.907 3.63 6.956v1.598s-.024.64.4.77c.52.166.816-.326 1.311-.855l.924-1.044c2.541.212 4.488-.276 4.712-.348.516-.165 3.421-.536 3.896-4.39.487-3.981-.237-6.49-1.544-7.624h-.008C13.416 1.981 11.83.825 8.289.812c0 0-.263-.017-.686-.01zm.044 1.119c.36-.003.58.013.58.013 2.998.008 4.429.91 4.767 1.214 1.1.943 1.668 3.205 1.252 6.528-.394 3.222-2.75 3.426-3.186 3.565-.186.06-1.9.482-4.06.343 0 0-1.61 1.942-2.113 2.442-.08.087-.172.113-.232.1-.085-.02-.11-.126-.106-.27l.016-2.653C1.414 12.333 1.6 9.045 1.633 7.328c.039-1.717.361-3.122 1.32-4.073C4.245 2.087 6.566 1.93 7.646 1.922zm.237 1.716a.196.196 0 00-.198.196c0 .111.09.199.198.199a3.719 3.719 0 012.66 1.05c.72.698 1.07 1.636 1.084 2.863 0 .109.088.199.198.199v-.008a.198.198 0 00.199-.196 4.266 4.266 0 00-1.197-3.143c-.783-.766-1.776-1.16-2.944-1.16zm-2.609.454a.62.62 0 00-.405.08h-.01a3.106 3.106 0 00-.756.621c-.18.21-.278.42-.304.624a.843.843 0 00.031.358l.013.008c.203.598.47 1.173.794 1.715.418.76.933 1.464 1.532 2.093l.017.026.029.02.017.022.021.017c.631.6 1.337 1.118 2.099 1.54.871.474 1.4.698 1.717.79v.006a.886.886 0 00.263.04c.27-.019.526-.129.727-.31.245-.218.452-.474.614-.759v-.005c.152-.286.1-.557-.119-.74a9.138 9.138 0 00-1.418-1.018c-.338-.183-.68-.072-.82.113l-.296.374c-.152.186-.428.16-.428.16l-.008.005c-2.06-.526-2.61-2.612-2.61-2.612s-.025-.283.165-.428l.372-.299c.177-.144.301-.487.11-.825A8.907 8.907 0 005.607 4.29a.564.564 0 00-.333-.199l.001.001zm2.952.588c-.263 0-.263.397.002.397a2.488 2.488 0 011.748.758 2.305 2.305 0 01.593 1.697.2.2 0 00.198.196l.008.01a.2.2 0 00.199-.198c.018-.787-.227-1.447-.706-1.976-.483-.528-1.155-.825-2.014-.884h-.028zm.325 1.068c-.27-.008-.281.397-.013.405.652.033.97.363 1.01 1.041a.197.197 0 00.197.194h.008a.2.2 0 00.19-.212c-.046-.884-.528-1.382-1.384-1.428h-.008z" fill="#222"/></svg>