<svg width="14" height="14" fill="none" xmlns="http://www.w3.org/2000/svg"><path d="M11.653 2.32A6.479 6.479 0 007.026.4C3.424.4.487 3.337.487 6.94a6.56 6.56 0 00.871 3.267L.433 13.6l3.465-.91a6.542 6.542 0 003.129.798c3.603 0 6.54-2.937 6.54-6.54a6.5 6.5 0 00-1.914-4.628zM7.026 12.38a5.453 5.453 0 01-2.771-.76l-.198-.118-2.06.541.548-2.006-.132-.205a5.454 5.454 0 01-.831-2.89 5.448 5.448 0 015.438-5.44A5.38 5.38 0 0110.86 3.1a5.4 5.4 0 011.59 3.848c.014 2.997-2.428 5.432-5.425 5.432zm2.984-4.066c-.165-.079-.97-.475-1.116-.534-.151-.053-.257-.08-.37.079a9.845 9.845 0 01-.514.64c-.092.112-.191.126-.356.04-.165-.08-.693-.258-1.314-.812a4.975 4.975 0 01-.91-1.135c-.093-.165-.014-.251.072-.337.072-.072.165-.191.244-.284.08-.092.112-.165.165-.27a.302.302 0 00-.013-.284c-.04-.08-.37-.885-.502-1.215-.132-.316-.27-.277-.37-.283H4.71a.593.593 0 00-.436.204c-.145.165-.567.561-.567 1.367 0 .805.587 1.583.666 1.69.08.111 1.155 1.761 2.792 2.467a8.1 8.1 0 00.93.344c.39.125.747.105 1.03.066.317-.046.97-.396 1.102-.78.14-.382.14-.705.093-.778-.046-.072-.145-.105-.31-.185z" fill="#222"/></svg>