<svg width="35" height="50" fill="none" xmlns="http://www.w3.org/2000/svg"><g clip-path="url(#clip0_47_193)" fill="#FF9B04"><path d="M25.251 4.887c0-.878-.73-1.595-1.623-1.595h-2.812c0-1.797-1.476-3.248-3.304-3.248-1.828 0-3.304 1.45-3.304 3.248h-2.811c-.894 0-1.624.717-1.624 1.595v3.755h15.479V4.887zM9.47 25.257c-1.386 0-2.517 1.104-2.517 2.466s1.131 2.474 2.517 2.474c1.385 0 2.508-1.112 2.508-2.474s-1.123-2.466-2.508-2.466zm1.737 2.192l-1.713 1.692a.846.846 0 01-.582.234.827.827 0 01-.574-.234l-.86-.846a.793.793 0 010-1.137.827.827 0 011.156 0l.279.275 1.139-1.12a.827.827 0 011.156 0c.32.314.32.822 0 1.136zM9.47 20.068c1.385 0 2.508-1.112 2.508-2.473 0-1.354-1.123-2.466-2.508-2.466-1.386 0-2.517 1.112-2.517 2.466 0 1.361 1.131 2.473 2.517 2.473zm-1.992-3.037a.827.827 0 011.156 0l.279.274 1.139-1.12a.827.827 0 011.156 0c.32.314.32.83 0 1.144l-1.713 1.684a.846.846 0 01-.582.234.827.827 0 01-.574-.234l-.861-.846a.793.793 0 010-1.136zM9.47 35.385c-1.386 0-2.517 1.104-2.517 2.466s1.131 2.466 2.517 2.466c1.385 0 2.508-1.104 2.508-2.466s-1.123-2.466-2.508-2.466zm1.434 2.74c.32.314.32.822 0 1.136a.82.82 0 01-.581.242.8.8 0 01-.574-.242l-.279-.274-.279.274a.82.82 0 01-1.164 0 .793.793 0 010-1.136l.279-.274-.279-.274a.793.793 0 010-1.136.836.836 0 011.164 0l.279.274.279-.274a.827.827 0 011.156 0c.32.314.32.822 0 1.136l-.279.274.279.274z"/><path d="M8.133 9.448h-4.05v36.559H30.94V9.448h-4.05v.806H8.133v-.806zm1.336 32.48c-2.295 0-4.156-1.828-4.156-4.076 0-2.249 1.86-4.078 4.156-4.078 2.288 0 4.149 1.83 4.149 4.078s-1.861 4.077-4.149 4.077zm0-10.12c-2.295 0-4.156-1.837-4.156-4.085s1.86-4.078 4.156-4.078c2.288 0 4.149 1.83 4.149 4.078s-1.861 4.085-4.149 4.085zm5.788-16.212H28.89c.451 0 .82.363.82.806a.81.81 0 01-.82.806H15.257a.805.805 0 110-1.612zm0 2.393h10.674a.805.805 0 110 1.612H15.257a.805.805 0 110-1.612zm0 7.736H28.89c.451 0 .82.363.82.806a.815.815 0 01-.82.806H15.257a.81.81 0 01-.82-.806.81.81 0 01.82-.806zm0 2.385h10.674a.805.805 0 110 1.611H15.257a.805.805 0 110-1.61zm0 7.744H28.89c.451 0 .82.362.82.805a.815.815 0 01-.82.806H15.257a.81.81 0 01-.82-.805.81.81 0 01.82-.806zm0 2.385h10.674a.81.81 0 01.82.806.81.81 0 01-.82.805H15.257a.81.81 0 01-.82-.805.81.81 0 01.82-.806zM9.47 13.517c2.288 0 4.149 1.83 4.149 4.077 0 2.257-1.861 4.086-4.149 4.086-2.295 0-4.156-1.83-4.156-4.086 0-2.248 1.861-4.077 4.156-4.077z"/><path d="M33.367 5.443h-6.476v2.393h4.87c.45 0 .819.362.819.806v38.17a.815.815 0 01-.82.805H3.264a.815.815 0 01-.82-.805V8.642c0-.443.37-.806.82-.806h4.87V5.443H1.657c-.91 0-1.64.725-1.64 1.611v41.337c0 .895.73 1.612 1.64 1.612h31.71c.91 0 1.64-.717 1.64-1.611V7.054c0-.886-.73-1.612-1.64-1.612z"/></g><defs><clipPath id="clip0_47_193"><path fill="#fff" d="M0 0h35v50H0z"/></clipPath></defs></svg>