<svg width="72" height="12" viewBox="0 0 72 12" fill="none" xmlns="http://www.w3.org/2000/svg">
<path d="M71.495 6.49497C71.7683 6.22161 71.7683 5.77839 71.495 5.50503L67.0402 1.05025C66.7668 0.776886 66.3236 0.776886 66.0503 1.05025C65.7769 1.32362 65.7769 1.76684 66.0503 2.0402L70.0101 6L66.0503 9.9598C65.7769 10.2332 65.7769 10.6764 66.0503 10.9497C66.3236 11.2231 66.7668 11.2231 67.0402 10.9497L71.495 6.49497ZM41 6.7H71V5.3H41V6.7Z" fill="#222222"/>
<path d="M0.505024 5.50503C0.231657 5.77839 0.231657 6.22161 0.505024 6.49498L4.9598 10.9497C5.23316 11.2231 5.67638 11.2231 5.94975 10.9497C6.22311 10.6764 6.22311 10.2332 5.94975 9.9598L1.98995 6L5.94975 2.0402C6.22311 1.76684 6.22311 1.32362 5.94975 1.05025C5.67638 0.776888 5.23316 0.776888 4.9598 1.05025L0.505024 5.50503ZM31 5.3L0.999998 5.3L0.999998 6.7L31 6.7L31 5.3Z" fill="#222222"/>
</svg>
